<svg width="600" height="126" fill="none" xmlns="http://www.w3.org/2000/svg"><path d="M4.8 124.44c-1.76 0-2.92-.48-3.48-1.44-.56-.88-.6-2.2-.12-3.96.4-1.44 1.04-2.48 1.92-3.12.88-.72 2-1.08 3.36-1.08 4.96 0 9.8-1 14.52-3 4.8-2 9.36-4.76 13.68-8.28 4.4-3.6 8.56-7.68 12.48-12.24 3.92-4.64 7.52-9.6 10.8-14.88 3.36-5.28 6.36-10.6 9-15.96 2.72-5.44 5-10.72 6.84-15.84 1.92-5.2 3.36-10.04 4.32-14.52 1.04-4.56 1.56-8.48 1.56-11.76 0-1.6-.2-2.96-.6-4.08-.4-1.2-1-2.08-1.8-2.64s-1.88-.84-3.24-.84c-1.84 0-3.6.64-5.28 1.92-1.68 1.28-3.24 3-4.68 5.16-1.36 2.08-2.44 4.4-3.24 6.96-.8 2.56-1.2 5.12-1.2 7.68 0 2.8.6 5.08 1.8 6.84 1.28 1.68 3 2.92 5.16 3.72 2.24.8 4.76 1.2 7.56 1.2 5.68 0 11.88-1.08 18.6-3.24 6.8-2.16 13.6-5.16 20.4-9a108.73 108.73 0 0019.2-13.92c1.12-.96 2.12-1.76 3-2.4.96-.64 2.28-.76 3.96-.36 1.68.4 2.96 1.2 3.84 2.4.96 1.12 1.12 2.68.48 4.68-.32 1.04-.72 2.2-1.2 3.48l-1.32 3.96c-.4 1.44-.88 2.96-1.44 4.56-.48 1.6-1 3.28-1.56 5.04-3.92 12.16-7.64 22.92-11.16 32.28-3.44 9.36-6.92 17.36-10.44 24-3.52 6.64-7.16 12.08-10.92 16.32-3.68 4.24-7.68 7.36-12 9.36-4.32 2-9.08 3-14.28 3-6.24 0-12.16-1.32-17.76-3.96-5.6-2.64-10.84-6.36-15.72-11.16-4.8-4.8-9.2-10.52-13.2-17.16-4-6.64-7.56-13.96-10.68-21.96-.64-1.68-1.04-3.24-1.2-4.68-.08-1.44.52-2.72 1.8-3.84 1.2-1.12 2.32-1.8 3.36-2.04 1.12-.32 2.52-.04 4.2.84 6.72 3.36 13.4 6.28 20.04 8.76 6.64 2.48 13.4 4.64 20.28 6.48 6.88 1.76 14 3.24 21.36 4.44 7.36 1.12 15.04 1.96 23.04 2.52 8.08.56 16.6.84 25.56.84 1.12 0 1.8.44 2.04 1.32.32.8.2 2.12-.36 3.96-.32 1.36-.84 2.4-1.56 3.12-.64.72-1.48 1.08-2.52 1.08-8.96 0-17.52-.28-25.68-.84-8.16-.64-16-1.56-23.52-2.76-7.52-1.28-14.88-2.88-22.08-4.8-7.2-2-14.32-4.32-21.36-6.96-6.96-2.72-13.96-5.84-21-9.36l6.84-1.8c2.64 7.36 5.68 14 9.12 19.92 3.52 5.84 7.32 10.84 11.4 15 4.16 4.08 8.56 7.2 13.2 9.36 4.72 2.16 9.64 3.24 14.76 3.24 4.16 0 7.88-.84 11.16-2.52 3.28-1.76 6.36-4.48 9.24-8.16 2.88-3.76 5.72-8.6 8.52-14.52s5.72-13.04 8.76-21.36c3.12-8.32 6.56-17.96 10.32-28.92.96-3.04 1.96-6.12 3-9.24s2.04-6.2 3-9.24l5.04 4.68c-7.36 6.32-14.8 11.64-22.32 15.96-7.44 4.32-14.84 7.6-22.2 9.84-7.28 2.24-14.2 3.36-20.76 3.36-3.36 0-6.52-.44-9.48-1.32-2.96-.88-5.56-2.2-7.8-3.96-2.24-1.76-3.96-3.96-5.16-6.6-1.2-2.64-1.8-5.72-1.8-9.24 0-3.76.68-7.48 2.04-11.16a38.56 38.56 0 015.64-10.2c2.4-3.12 5.16-5.6 8.28-7.44C68.28 2.12 71.56 1.2 75 1.2c3.28 0 6 .64 8.16 1.92 2.24 1.2 3.92 3.04 5.04 5.52 1.2 2.4 1.8 5.4 1.8 9 0 3.44-.56 7.6-1.68 12.48-1.04 4.88-2.6 10.2-4.68 15.96-2 5.68-4.48 11.56-7.44 17.64-2.96 6-6.32 11.92-10.08 17.76a140.15 140.15 0 01-12.48 16.56c-4.48 5.12-9.32 9.68-14.52 13.68-5.2 4-10.68 7.12-16.44 9.36-5.68 2.24-11.64 3.36-17.88 3.36zm151.869.6c-3.52 0-6.16-.64-7.92-1.92-1.68-1.28-2.72-2.92-3.12-4.92-.4-2.08-.4-4.24 0-6.48.4-2.32.92-4.48 1.56-6.48l13.2-40.2c.56-1.6 1.2-2.64 1.92-3.12.8-.48 1.96-.72 3.48-.72 2.48 0 4.04.4 4.68 1.2.72.72.8 1.88.24 3.48l-12.84 39.24c-1.44 4.24-2.12 7.12-2.04 8.64.16 1.52 1.16 2.28 3 2.28 1.12 0 1.96.48 2.52 1.44.56.88.76 1.92.6 3.12-.08 1.12-.56 2.12-1.44 3-.88.96-2.16 1.44-3.84 1.44zm16.56-82.32c-1.6 0-2.96-.52-4.08-1.56s-1.68-2.56-1.68-4.56c0-2.16.68-4.2 2.04-6.12 1.44-1.92 3.64-2.88 6.6-2.88 1.68 0 3.08.52 4.2 1.56 1.12.96 1.68 2.48 1.68 4.56 0 2.16-.72 4.2-2.16 6.12-1.36 1.92-3.56 2.88-6.6 2.88zm-17.183 82.32c-1.12 0-1.96-.48-2.52-1.44-.56-.88-.76-1.88-.6-3 .08-1.2.56-2.24 1.44-3.12.88-.96 2.16-1.44 3.84-1.44 1.92 0 4.16-.76 6.72-2.28 2.56-1.52 5.52-3.96 8.88-7.32 3.28-3.44 7-7.96 11.16-13.56 4.24-5.68 8.92-12.64 14.04-20.88.72-1.12 1.64-1.6 2.76-1.44 1.2.16 2.12.68 2.76 1.56.72.88.76 1.84.12 2.88-6 10.08-11.32 18.36-15.96 24.84-4.64 6.48-8.84 11.56-12.6 15.24-3.76 3.68-7.24 6.28-10.44 7.8-3.28 1.44-6.48 2.16-9.6 2.16zm38.52-.24c-3.2 0-5.72-.72-7.56-2.16-1.84-1.52-2.92-3.72-3.24-6.6-.32-2.96.24-6.56 1.68-10.8l10.56-32.64h-9.12c-.88 0-1.48-.4-1.8-1.2-.32-.8-.28-2 .12-3.6.48-1.6 1.12-2.8 1.92-3.6.8-.8 1.64-1.2 2.52-1.2h9.6l7.8-23.76c.48-1.6 1.08-2.64 1.8-3.12.8-.48 2-.72 3.6-.72 2.48 0 4.04.4 4.68 1.2.72.72.8 1.88.24 3.48L209.686 63h15.12c.88 0 1.48.4 1.8 1.2.4.72.36 1.92-.12 3.6-.4 1.52-1 2.72-1.8 3.6-.8.8-1.64 1.2-2.52 1.2h-15.6l-11.76 35.4c-.88 2.72-1.16 4.68-.84 5.88.4 1.2 1.36 1.8 2.88 1.8 1.6 0 3.48-.68 5.64-2.04 2.24-1.44 4.48-3.64 6.72-6.6.72-.8 1.44-1.24 2.16-1.32.8-.08 1.76.24 2.88.96 1.2.72 1.88 1.48 2.04 2.28.16.72.08 1.4-.24 2.04-.88 1.6-2.32 3.48-4.32 5.64-2 2.16-4.44 4.08-7.32 5.76-2.88 1.6-6.16 2.4-9.84 2.4zm84.083.24c-6 0-11.36-.92-16.08-2.76-4.72-1.92-8.76-4.68-12.12-8.28-3.28-3.6-5.8-7.96-7.56-13.08-1.68-5.2-2.52-11.08-2.52-17.64 0-5.84.68-11.88 2.04-18.12 1.36-6.32 3.36-12.52 6-18.6a90.97 90.97 0 019.84-17.4c3.92-5.52 8.4-10.36 13.44-14.52 5.12-4.16 10.8-7.44 17.04-9.84 6.32-2.4 13.16-3.6 20.52-3.6 5.12 0 9.64.56 13.56 1.68 4 1.04 7.52 2.64 10.56 4.8 3.04 2.08 5.64 4.68 7.8 7.8.64.96.76 1.8.36 2.52-.32.72-1.08 1.52-2.28 2.4-1.12.8-2.08 1.24-2.88 1.32-.72 0-1.68-.52-2.88-1.56-2.72-2.8-6.16-4.96-10.32-6.48-4.08-1.52-9.32-2.28-15.72-2.28-5.36 0-10.48 1-15.36 3-4.8 2-9.28 4.76-13.44 8.28-4.16 3.44-7.92 7.48-11.28 12.12-3.28 4.64-6.12 9.6-8.52 14.88a89.895 89.895 0 00-5.4 16.44c-1.2 5.6-1.8 11.08-1.8 16.44 0 5.52.64 10.36 1.92 14.52 1.28 4.08 3.12 7.52 5.52 10.32 2.4 2.8 5.32 4.92 8.76 6.36 3.52 1.36 7.52 2.04 12 2.04 1.2 0 2.04.48 2.52 1.44.48.88.64 1.96.48 3.24-.16 1.2-.6 2.24-1.32 3.12-.72.96-1.68 1.44-2.88 1.44zm-.052 0c-.96 0-1.64-.48-2.04-1.44-.48-.88-.68-1.92-.6-3.12.08-1.28.44-2.36 1.08-3.24.64-.96 1.56-1.44 2.76-1.44 6 0 12.04-1.16 18.12-3.48 6.08-2.32 12.08-5.64 18-9.96 5.92-4.32 11.6-9.52 17.04-15.6 5.44-6.08 10.48-12.92 15.12-20.52.48-.72 1.2-.88 2.16-.48.96.4 1.76 1.04 2.4 1.92.72.8.88 1.56.48 2.28-4.64 8.4-9.84 16-15.6 22.8-5.68 6.8-11.76 12.6-18.24 17.4-6.48 4.8-13.12 8.48-19.92 11.04-6.88 2.56-13.8 3.84-20.76 3.84zm67.08-.24c-3.68 0-6.56-.88-8.64-2.64-2-1.84-3.08-4.52-3.24-8.04-.16-3.6.6-7.96 2.28-13.08l12-36c.56-1.6 1.2-2.64 1.92-3.12.8-.48 1.96-.72 3.48-.72 2.48 0 4.04.4 4.68 1.2.72.72.8 1.88.24 3.48l-12.72 37.92c-.72 2-1.2 3.88-1.44 5.64-.16 1.76.12 3.16.84 4.2.8 1.04 2.28 1.56 4.44 1.56 2.8 0 5.84-1.2 9.12-3.6 3.28-2.4 6.64-5.76 10.08-10.08 3.52-4.32 6.96-9.4 10.32-15.24 3.36-5.92 6.48-12.4 9.36-19.44l.6-1.8c.56-1.6 1.2-2.64 1.92-3.12.8-.48 1.96-.72 3.48-.72 2.48 0 4.04.4 4.68 1.2.72.72.8 1.88.24 3.48l-12.96 39.24c-1.36 4.16-2 7.04-1.92 8.64.08 1.52 1.04 2.28 2.88 2.28 1.12 0 1.96.48 2.52 1.44.56.88.76 1.92.6 3.12-.08 1.12-.56 2.12-1.44 3-.88.96-2.16 1.44-3.84 1.44-3.52 0-6.16-.68-7.92-2.04-1.68-1.28-2.72-2.92-3.12-4.92-.4-2.08-.4-4.24 0-6.48.4-2.32.92-4.44 1.56-6.36l1.32-3.84c-2.4 3.76-4.88 7.08-7.44 9.96-2.56 2.88-5.2 5.32-7.92 7.32-2.64 2-5.32 3.52-8.04 4.56-2.64 1.04-5.28 1.56-7.92 1.56zm39.47.24c-1.52 0-2.52-.48-3-1.44-.48-.88-.56-1.88-.24-3 .24-1.2.88-2.24 1.92-3.12.96-.96 2.2-1.44 3.721-1.44 2.239 0 5.079-.96 8.519-2.88 3.44-1.92 7.241-4.56 11.401-7.92 4.16-3.44 8.48-7.4 12.96-11.88 4.56-4.48 9.04-9.32 13.44-14.52 4.48-5.28 8.68-10.68 12.6-16.2 4-5.52 7.52-11 10.56-16.44 3.04-5.44 5.44-10.64 7.2-15.6 1.76-5.04 2.639-9.6 2.639-13.68 0-1.52.481-2.64 1.441-3.36 1.04-.8 2.24-1.2 3.6-1.2 1.36 0 2.52.4 3.48 1.2 1.04.72 1.56 1.84 1.56 3.36 0 3.84-.8 8.12-2.4 12.84-1.52 4.64-3.68 9.56-6.48 14.76-2.72 5.2-5.92 10.48-9.6 15.84-3.68 5.28-7.68 10.56-12 15.84-4.24 5.28-8.64 10.32-13.2 15.12-4.56 4.8-9.12 9.28-13.68 13.44-4.56 4.08-8.96 7.64-13.2 10.68-4.241 3.04-8.161 5.4-11.761 7.08-3.6 1.68-6.76 2.52-9.48 2.52zm46.318.24c-4.08 0-7.28-.8-9.6-2.4-2.32-1.6-3.92-3.68-4.8-6.24-.8-2.64-1.08-5.48-.84-8.52.24-3.12.84-6.2 1.8-9.24l23.28-71.4c2.96-9.36 6.24-16.16 9.84-20.4 3.68-4.24 8.08-6.36 13.2-6.36 2.56 0 4.76.68 6.6 2.04 1.92 1.36 3.4 3.24 4.44 5.64 1.12 2.4 1.68 5.24 1.68 8.52 0 1.52-.52 2.64-1.56 3.36-.96.72-2.12 1.08-3.48 1.08-1.36 0-2.56-.36-3.6-1.08-.96-.72-1.44-1.84-1.44-3.36 0-1.36-.12-2.52-.36-3.48s-.64-1.72-1.2-2.28c-.56-.56-1.4-.84-2.52-.84-1.28 0-2.52.56-3.72 1.68-1.12 1.04-2.36 3-3.72 5.88-1.28 2.8-2.8 6.8-4.56 12l-22.32 69c-.64 2-1.2 4-1.68 6-.4 1.92-.52 3.72-.36 5.4.16 1.6.8 2.92 1.92 3.96 1.12.96 2.92 1.44 5.4 1.44 2.08 0 4.2-.56 6.36-1.68 2.24-1.12 4.4-2.64 6.48-4.56 2.16-1.92 4.16-4.12 6-6.6 1.84-2.56 3.48-5.28 4.92-8.16 1.52-2.88 2.72-5.8 3.6-8.76.4-1.2.76-2.4 1.08-3.6.32-1.2.56-2.4.72-3.6.24-1.2.36-2.36.36-3.48-1.28-1.36-2.2-2.56-2.76-3.6-.48-1.12-.72-2.44-.72-3.96 0-1.76.56-3.16 1.68-4.2 1.12-1.12 2.56-1.68 4.32-1.68 1.2 0 2.24.28 3.12.84.88.48 1.6 1.24 2.16 2.28.64.96 1.08 2.16 1.32 3.6.32 1.36.48 2.92.48 4.68 0 4.4-.72 9-2.16 13.8-1.36 4.72-3.32 9.36-5.88 13.92-2.56 4.56-5.56 8.68-9 12.36-3.44 3.68-7.24 6.6-11.4 8.76s-8.52 3.24-13.08 3.24zm62.911-26.16c-4.72 0-8.92-1.16-12.6-3.48-3.68-2.32-6.92-5.76-9.72-10.32-2.8-4.56-5.28-10.12-7.44-16.68-.48-1.52-.2-2.72.84-3.6.96-.88 2.12-1.24 3.48-1.08 1.28.16 2.2 1.08 2.76 2.76 1.6 4.64 3.4 8.76 5.4 12.36 2 3.6 4.4 6.44 7.2 8.52 2.8 2 6.16 3 10.08 3 .72 0 1.28.44 1.68 1.32.4.8.6 1.8.6 3 0 1.12-.2 2.12-.6 3-.4.8-.96 1.2-1.68 1.2zm-4.8-8.04c2.4.32 5.24.16 8.52-.48 3.36-.64 6.64-1.68 9.84-3.12 3.2-1.44 5.84-3.24 7.92-5.4 2.16-2.16 3.24-4.56 3.24-7.2 0-1.52-.44-2.64-1.32-3.36-.88-.8-2.16-1.2-3.84-1.2-1.12 0-1.92-.48-2.4-1.44s-.64-2.08-.48-3.36c.16-1.28.68-2.4 1.56-3.36.96-.96 2.28-1.44 3.96-1.44 1.68 0 3.32.28 4.92.84 1.6.56 3 1.36 4.2 2.4a11.21 11.21 0 013 3.72c.72 1.44 1.08 3.04 1.08 4.8 0 3.84-1.08 7.44-3.24 10.8-2.16 3.28-5.12 6.2-8.88 8.76-3.76 2.48-8.08 4.36-12.96 5.64-4.8 1.28-9.84 1.76-15.12 1.44v-8.04zm21.073 33.96c-2.88 0-5.48-.44-7.8-1.32-2.4-.88-4.48-2.12-6.24-3.72-1.76-1.6-3.24-3.48-4.44-5.64-1.28-2.16-2.2-4.52-2.76-7.08-.64-2.56-.96-5.28-.96-8.16 0-3.04.36-6.28 1.08-9.72.64-3.52 1.68-6.96 3.12-10.32 1.36-3.36 3.16-6.4 5.4-9.12 2.24-2.8 4.92-5.04 8.04-6.72 3.12-1.68 6.72-2.52 10.8-2.52 1.12 0 1.96.48 2.52 1.44.48.96.64 2.08.48 3.36-.24 1.28-.8 2.4-1.68 3.36-.96.96-2.28 1.44-3.96 1.44-2.48 0-4.68 1-6.6 3s-3.48 4.52-4.68 7.56c-1.28 3.04-2.24 6.2-2.88 9.48-.64 3.2-.96 6.08-.96 8.64 0 2.24.28 4.36.84 6.36.48 2 1.28 3.8 2.4 5.4 1.04 1.52 2.44 2.76 4.2 3.72 1.76.88 3.88 1.32 6.36 1.32 4.08 0 8.52-1.56 13.32-4.68 4.72-3.2 9.8-8.36 15.24-15.48 5.44-7.12 11.16-16.52 17.16-28.2.24-.48.8-.64 1.68-.48.88.16 1.8.56 2.76 1.2.96.56 1.72 1.28 2.28 2.16.64.8.76 1.56.36 2.28-6.72 13.2-13.2 23.64-19.44 31.32-6.24 7.6-12.32 13.04-18.24 16.32-5.92 3.2-11.72 4.8-17.4 4.8zm70.92-.24c-2.96 0-5.16-.6-6.6-1.8-1.44-1.12-2.32-2.56-2.64-4.32-.32-1.76-.32-3.6 0-5.52.32-1.92.76-3.64 1.32-5.16.48-1.36 1.16-3.2 2.04-5.52.96-2.4 2-5.04 3.12-7.92 1.2-2.88 2.32-5.76 3.36-8.64 1.12-2.88 2.04-5.52 2.76-7.92.64-2.4.76-4.04.36-4.92-.32-.96-1.32-1.44-3-1.44-1.84 0-3.8.4-5.88 1.2-2.08.72-4.24 1.48-6.48 2.28-2.24.72-4.6 1.08-7.08 1.08-1.44 0-2.68-.6-3.72-1.8-1.04-1.2-1.88-2.72-2.52-4.56a21.32 21.32 0 01-.84-6c0-1.68.28-3.24.84-4.68.56-1.52 1.44-2.76 2.64-3.72 1.28-.96 2.88-1.44 4.8-1.44 1.6 0 2.88.52 3.84 1.56s1.44 2.36 1.44 3.96c0 1.04-.16 2.2-.48 3.48-.24 1.2-.64 2.44-1.2 3.72.8 0 2.24-.44 4.32-1.32 2.08-.88 4.48-1.76 7.2-2.64 2.8-.88 5.6-1.32 8.4-1.32 2.48 0 4.44.6 5.88 1.8 1.52 1.2 2.44 3.04 2.76 5.52.32 2.4-.04 5.56-1.08 9.48-.56 2.24-1.4 4.84-2.52 7.8s-2.28 6-3.48 9.12c-1.2 3.12-2.36 6.04-3.48 8.76-1.04 2.72-1.84 4.92-2.4 6.6-.8 2.24-1 3.68-.6 4.32.4.56.96.84 1.68.84.8 0 1.6-.24 2.4-.72.88-.56 1.76-1.32 2.64-2.28.96-1.04 1.96-2.24 3-3.6.64-.8 1.24-1.24 1.8-1.32.64-.16 1.44.08 2.4.72 1.28.8 2.04 1.6 2.28 2.4.32.8.28 1.6-.12 2.4-.72 1.2-1.88 2.72-3.48 4.56-1.6 1.84-3.56 3.48-5.88 4.92-2.24 1.36-4.84 2.04-7.8 2.04z" fill="#fff"/></svg>