<svg width="503" height="186" viewBox="0 0 503 186" fill="none" xmlns="http://www.w3.org/2000/svg">
<path d="M14.92 185.28C10.68 185.28 7.2 184.08 4.48 181.68C1.84 179.36 0.52 176.32 0.52 172.56C0.52 169.76 1.08 166.96 2.2 164.16C3.24 161.44 4.8 158.68 6.88 155.88C8.96 153.08 11.56 150.2 14.68 147.24C17.88 144.36 21.56 141.32 25.72 138.12C27.8 136.6 29.76 135.16 31.6 133.8C33.52 132.44 35.44 131.08 37.36 129.72C39.28 128.44 41.28 127.12 43.36 125.76L50.56 103.44C47.12 108.32 43.68 112.36 40.24 115.56C36.88 118.76 33.64 121.16 30.52 122.76C27.4 124.28 24.44 125.04 21.64 125.04C19 125.04 16.64 124.32 14.56 122.88C12.56 121.44 11 119.4 9.88 116.76C8.76 114.12 8.2 111 8.2 107.4C8.2 103.72 8.76 99.76 9.88 95.52C11 91.28 12.68 87.12 14.92 83.04C17.16 78.96 19.88 75.24 23.08 71.88C26.28 68.52 29.96 65.84 34.12 63.84C38.36 61.76 43 60.72 48.04 60.72C49.64 60.72 51.28 60.88 52.96 61.2C54.64 61.44 56.36 61.84 58.12 62.4C59.88 62.96 61.56 63.64 63.16 64.44L63.52 63.72C63.92 62.76 64.52 62.12 65.32 61.8C66.12 61.4 67.16 61.2 68.44 61.2C70.92 61.2 72.48 61.6 73.12 62.4C73.84 63.12 73.92 64.28 73.36 65.88L44.92 153C43 158.76 41.04 163.68 39.04 167.76C37.04 171.84 34.88 175.16 32.56 177.72C30.24 180.36 27.6 182.28 24.64 183.48C21.76 184.68 18.52 185.28 14.92 185.28ZM16.72 176.04C19.12 176.04 21.36 175.24 23.44 173.64C25.52 172.04 27.48 169.52 29.32 166.08C31.16 162.64 32.96 158.12 34.72 152.52L39.16 138.96C38.04 139.68 36.92 140.44 35.8 141.24C34.68 142.04 33.56 142.84 32.44 143.64C31.32 144.44 30.2 145.28 29.08 146.16C25.88 148.72 23.12 151.16 20.8 153.48C18.56 155.8 16.72 157.96 15.28 159.96C13.92 161.96 12.88 163.84 12.16 165.6C11.52 167.44 11.2 169.2 11.2 170.88C11.2 171.84 11.4 172.72 11.8 173.52C12.2 174.32 12.8 174.92 13.6 175.32C14.48 175.8 15.52 176.04 16.72 176.04ZM25.12 115.44C27.92 115.44 31.12 114 34.72 111.12C38.4 108.16 42.28 103.88 46.36 98.28C50.52 92.68 54.72 85.8 58.96 77.64L60.52 72.84C57.8 71.72 55.24 71 52.84 70.68C50.52 70.36 48.36 70.2 46.36 70.2C42.92 70.2 39.76 71 36.88 72.6C34.08 74.2 31.56 76.32 29.32 78.96C27.16 81.52 25.32 84.4 23.8 87.6C22.28 90.72 21.12 93.84 20.32 96.96C19.52 100.08 19.12 102.92 19.12 105.48C19.12 107.48 19.36 109.24 19.84 110.76C20.32 112.28 21 113.44 21.88 114.24C22.84 115.04 23.92 115.44 25.12 115.44ZM51.0484 130.8C50.0084 131.36 49.0884 131.36 48.2884 130.8C47.4084 130.32 46.8084 129.56 46.4884 128.52C46.1684 127.48 46.1684 126.4 46.4884 125.28C46.7284 124.16 47.4084 123.32 48.5284 122.76C53.4884 119.96 58.0484 117.08 62.2084 114.12C66.3684 111.08 70.2484 107.88 73.8484 104.52C77.4484 101.16 80.8084 97.56 83.9284 93.72C87.1284 89.88 90.2084 85.76 93.1684 81.36C96.2084 76.88 99.2084 72.08 102.168 66.96C102.968 65.76 103.888 65.16 104.928 65.16C105.968 65.16 106.768 65.64 107.328 66.6C107.888 67.56 107.768 68.76 106.968 70.2C103.848 76.12 100.728 81.56 97.6084 86.52C94.4884 91.48 91.2484 96.04 87.8884 100.2C84.6084 104.36 81.1284 108.2 77.4484 111.72C73.6884 115.24 69.6484 118.6 65.3284 121.8C61.0084 124.92 56.2484 127.92 51.0484 130.8ZM98.2084 125.04C94.6884 125.04 92.0484 124.4 90.2884 123.12C88.6084 121.84 87.5684 120.2 87.1684 118.2C86.7684 116.12 86.7684 113.96 87.1684 111.72C87.5684 109.4 88.0884 107.24 88.7284 105.24L101.928 65.04C102.488 63.44 103.128 62.4 103.848 61.92C104.648 61.44 105.808 61.2 107.328 61.2C109.808 61.2 111.368 61.6 112.008 62.4C112.728 63.12 112.808 64.28 112.248 65.88L99.4084 105.12C97.9684 109.36 97.2884 112.24 97.3684 113.76C97.5284 115.28 98.5284 116.04 100.368 116.04C101.488 116.04 102.328 116.52 102.888 117.48C103.448 118.36 103.648 119.4 103.488 120.6C103.408 121.72 102.928 122.72 102.048 123.6C101.168 124.56 99.8884 125.04 98.2084 125.04ZM114.768 42.72C113.168 42.72 111.808 42.2 110.688 41.16C109.568 40.12 109.008 38.6 109.008 36.6C109.008 34.44 109.688 32.4 111.048 30.48C112.488 28.56 114.688 27.6 117.648 27.6C119.328 27.6 120.728 28.12 121.848 29.16C122.968 30.12 123.528 31.64 123.528 33.72C123.528 35.88 122.808 37.92 121.368 39.84C120.008 41.76 117.808 42.72 114.768 42.72ZM97.6319 125.04C96.5119 125.04 95.6719 124.56 95.1119 123.6C94.5519 122.72 94.3519 121.72 94.5119 120.6C94.5919 119.4 95.0719 118.36 95.9519 117.48C96.8319 116.52 98.1119 116.04 99.7919 116.04C101.712 116.04 103.952 115.28 106.512 113.76C109.072 112.24 112.032 109.8 115.392 106.44C118.672 103 122.392 98.48 126.552 92.88C130.792 87.2 135.472 80.24 140.592 72C141.312 70.88 142.232 70.4 143.352 70.56C144.552 70.72 145.472 71.24 146.112 72.12C146.832 73 146.872 73.96 146.232 75C140.232 85.08 134.912 93.36 130.272 99.84C125.632 106.32 121.432 111.4 117.672 115.08C113.912 118.76 110.432 121.36 107.232 122.88C103.952 124.32 100.752 125.04 97.6319 125.04ZM143.592 125.04C139.832 125.04 136.752 124.2 134.352 122.52C132.032 120.76 130.352 118.48 129.312 115.68C128.272 112.8 127.832 109.6 127.992 106.08C128.152 102.56 128.832 99 130.032 95.4L137.592 72.6H128.472C127.592 72.6 126.992 72.2 126.672 71.4C126.352 70.6 126.392 69.4 126.792 67.8C127.272 66.2 127.912 65 128.712 64.2C129.512 63.4 130.352 63 131.232 63H140.832L148.632 39.24C149.112 37.64 149.712 36.6 150.432 36.12C151.232 35.64 152.432 35.4 154.032 35.4C156.592 35.4 158.192 35.8 158.832 36.6C159.472 37.32 159.512 38.48 158.952 40.08L151.272 63H166.392C167.272 63 167.872 63.4 168.192 64.2C168.592 64.92 168.552 66.12 168.072 67.8C167.672 69.32 167.072 70.52 166.272 71.4C165.472 72.2 164.632 72.6 163.752 72.6H148.152L140.232 96.48C139.112 99.84 138.472 102.76 138.312 105.24C138.232 107.72 138.472 109.76 139.032 111.36C139.672 112.96 140.592 114.16 141.792 114.96C142.992 115.68 144.352 116.04 145.872 116.04C146.992 116.04 147.832 116.52 148.392 117.48C148.952 118.36 149.152 119.4 148.992 120.6C148.832 121.72 148.312 122.72 147.432 123.6C146.552 124.56 145.272 125.04 143.592 125.04ZM144.038 125.04C142.918 125.04 142.078 124.56 141.518 123.6C140.958 122.72 140.758 121.72 140.918 120.6C140.998 119.4 141.478 118.36 142.358 117.48C143.238 116.52 144.518 116.04 146.198 116.04C148.278 116.04 150.478 115.28 152.798 113.76C155.118 112.24 157.518 110.12 159.998 107.4C162.398 104.68 164.878 101.48 167.438 97.8C169.998 94.12 172.598 90.12 175.238 85.8C175.878 84.76 176.758 84.32 177.878 84.48C178.998 84.64 179.918 85.16 180.638 86.04C181.358 86.84 181.398 87.76 180.758 88.8C177.318 94.8 174.038 100.08 170.918 104.64C167.878 109.2 164.918 113 162.038 116.04C159.078 119 156.158 121.24 153.278 122.76C150.318 124.28 147.238 125.04 144.038 125.04ZM196.475 125.04C188.315 125.04 182.155 122.76 177.995 118.2C173.835 113.56 171.755 107.6 171.755 100.32C171.755 96.08 172.515 91.68 174.035 87.12C175.635 82.48 177.955 78.16 180.995 74.16C184.035 70.16 187.795 66.92 192.275 64.44C196.835 61.96 202.035 60.72 207.875 60.72C212.595 60.72 216.555 61.44 219.755 62.88C223.035 64.32 225.875 66.44 228.275 69.24C229.475 70.68 229.875 71.92 229.475 72.96C229.155 73.92 228.515 74.84 227.555 75.72C226.515 76.52 225.475 77 224.435 77.16C223.395 77.24 222.315 76.68 221.195 75.48C219.675 73.8 217.795 72.52 215.555 71.64C213.315 70.76 210.395 70.32 206.795 70.32C202.795 70.32 199.275 71.32 196.235 73.32C193.195 75.32 190.635 77.92 188.555 81.12C186.555 84.24 185.035 87.56 183.995 91.08C183.035 94.52 182.555 97.76 182.555 100.8C182.555 103.36 183.035 105.8 183.995 108.12C185.035 110.44 186.675 112.32 188.915 113.76C191.155 115.12 194.075 115.8 197.675 115.8C198.795 115.8 199.555 116.28 199.955 117.24C200.435 118.12 200.595 119.2 200.435 120.48C200.275 121.68 199.835 122.72 199.115 123.6C198.475 124.56 197.595 125.04 196.475 125.04ZM194.934 125.04C193.414 125.04 192.374 124.56 191.814 123.6C191.174 122.72 190.934 121.68 191.094 120.48C191.174 119.2 191.654 118.12 192.534 117.24C193.414 116.28 194.614 115.8 196.134 115.8C202.454 115.8 208.734 113.76 214.974 109.68C221.214 105.52 227.454 99.64 233.694 92.04C239.934 84.36 246.214 75.28 252.534 64.8C252.934 64.24 253.614 64.16 254.574 64.56C255.534 64.96 256.374 65.56 257.094 66.36C257.814 67.08 257.974 67.8 257.574 68.52C251.094 80.68 244.414 90.96 237.534 99.36C230.654 107.76 223.654 114.16 216.534 118.56C209.414 122.88 202.214 125.04 194.934 125.04ZM249.294 124.8C245.614 124.8 242.734 123.92 240.654 122.16C238.654 120.32 237.574 117.64 237.414 114.12C237.254 110.52 238.014 106.16 239.694 101.04L251.694 65.04C252.254 63.44 252.894 62.4 253.614 61.92C254.414 61.44 255.574 61.2 257.094 61.2C259.574 61.2 261.134 61.6 261.774 62.4C262.494 63.12 262.574 64.28 262.014 65.88L249.294 103.8C248.574 105.8 248.094 107.68 247.854 109.44C247.694 111.2 247.974 112.6 248.694 113.64C249.494 114.68 250.974 115.2 253.134 115.2C255.934 115.2 258.974 114 262.254 111.6C265.534 109.2 268.894 105.84 272.334 101.52C275.854 97.2 279.294 92.12 282.654 86.28C286.014 80.36 289.134 73.88 292.014 66.84L292.614 65.04C293.174 63.44 293.814 62.4 294.534 61.92C295.334 61.44 296.494 61.2 298.014 61.2C300.494 61.2 302.054 61.6 302.694 62.4C303.414 63.12 303.494 64.28 302.934 65.88L289.974 105.12C288.614 109.28 287.974 112.16 288.054 113.76C288.134 115.28 289.094 116.04 290.934 116.04C292.054 116.04 292.894 116.52 293.454 117.48C294.014 118.36 294.214 119.4 294.054 120.6C293.974 121.72 293.494 122.72 292.614 123.6C291.734 124.56 290.454 125.04 288.774 125.04C285.254 125.04 282.614 124.36 280.854 123C279.174 121.72 278.134 120.08 277.734 118.08C277.334 116 277.334 113.84 277.734 111.6C278.134 109.28 278.654 107.16 279.294 105.24L280.614 101.4C278.214 105.16 275.734 108.48 273.174 111.36C270.614 114.24 267.974 116.68 265.254 118.68C262.614 120.68 259.934 122.2 257.214 123.24C254.574 124.28 251.934 124.8 249.294 124.8ZM288.765 125.04C287.245 125.04 286.245 124.56 285.765 123.6C285.285 122.72 285.205 121.72 285.525 120.6C285.765 119.4 286.405 118.36 287.445 117.48C288.405 116.52 289.645 116.04 291.165 116.04C293.405 116.04 296.245 115.08 299.685 113.16C303.125 111.24 306.925 108.6 311.085 105.24C315.245 101.8 319.565 97.84 324.045 93.36C328.605 88.88 333.085 84.04 337.485 78.84C341.965 73.56 346.165 68.16 350.085 62.64C354.085 57.12 357.605 51.64 360.645 46.2C363.685 40.76 366.085 35.56 367.845 30.6C369.605 25.56 370.485 21 370.485 16.92C370.485 15.4 370.965 14.28 371.925 13.56C372.965 12.76 374.165 12.36 375.525 12.36C376.885 12.36 378.045 12.76 379.005 13.56C380.045 14.28 380.565 15.4 380.565 16.92C380.565 20.76 379.765 25.04 378.165 29.76C376.645 34.4 374.485 39.32 371.685 44.52C368.965 49.72 365.765 55 362.085 60.36C358.405 65.64 354.405 70.92 350.085 76.2C345.845 81.48 341.445 86.52 336.885 91.32C332.325 96.12 327.765 100.6 323.205 104.76C318.645 108.84 314.245 112.4 310.005 115.44C305.765 118.48 301.845 120.84 298.245 122.52C294.645 124.2 291.485 125.04 288.765 125.04ZM335.082 125.28C331.002 125.28 327.802 124.48 325.482 122.88C323.162 121.28 321.562 119.2 320.682 116.64C319.882 114 319.602 111.16 319.842 108.12C320.082 105 320.682 101.92 321.642 98.88L344.922 27.48C347.882 18.12 351.162 11.32 354.762 7.08C358.442 2.83999 362.842 0.719994 367.962 0.719994C370.522 0.719994 372.722 1.39999 374.562 2.75999C376.482 4.11999 377.962 5.99999 379.002 8.39999C380.122 10.8 380.682 13.64 380.682 16.92C380.682 18.44 380.162 19.56 379.122 20.28C378.162 21 377.002 21.36 375.642 21.36C374.282 21.36 373.082 21 372.042 20.28C371.082 19.56 370.602 18.44 370.602 16.92C370.602 15.56 370.482 14.4 370.242 13.44C370.002 12.48 369.602 11.72 369.042 11.16C368.482 10.6 367.642 10.32 366.522 10.32C365.242 10.32 364.002 10.88 362.802 12C361.682 13.04 360.442 15 359.082 17.88C357.802 20.68 356.282 24.68 354.522 29.88L332.202 98.88C331.562 100.88 331.002 102.88 330.522 104.88C330.122 106.8 330.002 108.6 330.162 110.28C330.322 111.88 330.962 113.2 332.082 114.24C333.202 115.2 335.002 115.68 337.482 115.68C339.562 115.68 341.682 115.12 343.842 114C346.082 112.88 348.242 111.36 350.322 109.44C352.482 107.52 354.482 105.32 356.322 102.84C358.162 100.28 359.802 97.56 361.242 94.68C362.762 91.8 363.962 88.88 364.842 85.92C365.242 84.72 365.602 83.52 365.922 82.32C366.242 81.12 366.482 79.92 366.642 78.72C366.882 77.52 367.002 76.36 367.002 75.24C365.722 73.88 364.802 72.68 364.242 71.64C363.762 70.52 363.522 69.2 363.522 67.68C363.522 65.92 364.082 64.52 365.202 63.48C366.322 62.36 367.762 61.8 369.522 61.8C370.722 61.8 371.762 62.08 372.642 62.64C373.522 63.12 374.242 63.88 374.802 64.92C375.442 65.88 375.882 67.08 376.122 68.52C376.442 69.88 376.602 71.44 376.602 73.2C376.602 77.6 375.882 82.2 374.442 87C373.082 91.72 371.122 96.36 368.562 100.92C366.002 105.48 363.002 109.6 359.562 113.28C356.122 116.96 352.322 119.88 348.162 122.04C344.002 124.2 339.642 125.28 335.082 125.28ZM397.993 99.12C393.273 99.12 389.073 97.96 385.393 95.64C381.713 93.32 378.473 89.88 375.673 85.32C372.873 80.76 370.393 75.2 368.233 68.64C367.753 67.12 368.033 65.92 369.073 65.04C370.033 64.16 371.193 63.8 372.553 63.96C373.833 64.12 374.753 65.04 375.313 66.72C376.913 71.36 378.713 75.48 380.713 79.08C382.713 82.68 385.113 85.52 387.913 87.6C390.713 89.6 394.073 90.6 397.993 90.6C398.713 90.6 399.273 91.04 399.673 91.92C400.073 92.72 400.273 93.72 400.273 94.92C400.273 96.04 400.073 97.04 399.673 97.92C399.273 98.72 398.713 99.12 397.993 99.12ZM393.193 91.08C395.593 91.4 398.433 91.24 401.713 90.6C405.073 89.96 408.353 88.92 411.553 87.48C414.753 86.04 417.393 84.24 419.473 82.08C421.633 79.92 422.713 77.52 422.713 74.88C422.713 73.36 422.273 72.24 421.393 71.52C420.513 70.72 419.233 70.32 417.553 70.32C416.433 70.32 415.633 69.84 415.153 68.88C414.673 67.92 414.513 66.8 414.673 65.52C414.833 64.24 415.353 63.12 416.233 62.16C417.193 61.2 418.513 60.72 420.193 60.72C421.873 60.72 423.513 61 425.113 61.56C426.713 62.12 428.113 62.92 429.313 63.96C430.593 65 431.593 66.24 432.313 67.68C433.033 69.12 433.393 70.72 433.393 72.48C433.393 76.32 432.313 79.92 430.153 83.28C427.993 86.56 425.033 89.48 421.273 92.04C417.513 94.52 413.193 96.4 408.313 97.68C403.513 98.96 398.473 99.44 393.193 99.12V91.08ZM414.266 125.04C411.386 125.04 408.786 124.6 406.466 123.72C404.066 122.84 401.986 121.6 400.226 120C398.466 118.4 396.986 116.52 395.786 114.36C394.506 112.2 393.586 109.84 393.026 107.28C392.386 104.72 392.066 102 392.066 99.12C392.066 96.08 392.426 92.84 393.146 89.4C393.786 85.88 394.826 82.44 396.266 79.08C397.626 75.72 399.426 72.68 401.666 69.96C403.906 67.16 406.586 64.92 409.706 63.24C412.826 61.56 416.426 60.72 420.506 60.72C421.626 60.72 422.466 61.2 423.026 62.16C423.506 63.12 423.666 64.24 423.506 65.52C423.266 66.8 422.706 67.92 421.826 68.88C420.866 69.84 419.546 70.32 417.866 70.32C415.386 70.32 413.186 71.32 411.266 73.32C409.346 75.32 407.786 77.84 406.586 80.88C405.306 83.92 404.346 87.08 403.706 90.36C403.066 93.56 402.746 96.44 402.746 99C402.746 101.24 403.026 103.36 403.586 105.36C404.066 107.36 404.866 109.16 405.986 110.76C407.026 112.28 408.426 113.52 410.186 114.48C411.946 115.36 414.066 115.8 416.546 115.8C420.626 115.8 425.066 114.24 429.866 111.12C434.586 107.92 439.666 102.76 445.106 95.64C450.546 88.52 456.266 79.12 462.266 67.44C462.506 66.96 463.066 66.8 463.946 66.96C464.826 67.12 465.746 67.52 466.706 68.16C467.666 68.72 468.426 69.44 468.986 70.32C469.626 71.12 469.746 71.88 469.346 72.6C462.626 85.8 456.146 96.24 449.906 103.92C443.666 111.52 437.586 116.96 431.666 120.24C425.746 123.44 419.946 125.04 414.266 125.04ZM485.186 124.8C482.226 124.8 480.026 124.2 478.586 123C477.146 121.88 476.266 120.44 475.946 118.68C475.626 116.92 475.626 115.08 475.946 113.16C476.266 111.24 476.706 109.52 477.266 108C477.746 106.64 478.426 104.8 479.306 102.48C480.266 100.08 481.306 97.44 482.426 94.56C483.626 91.68 484.746 88.8 485.786 85.92C486.906 83.04 487.826 80.4 488.546 78C489.186 75.6 489.306 73.96 488.906 73.08C488.586 72.12 487.586 71.64 485.906 71.64C484.066 71.64 482.106 72.04 480.026 72.84C477.946 73.56 475.786 74.32 473.546 75.12C471.306 75.84 468.946 76.2 466.466 76.2C465.026 76.2 463.786 75.6 462.746 74.4C461.706 73.2 460.866 71.68 460.226 69.84C459.666 67.92 459.386 65.92 459.386 63.84C459.386 62.16 459.666 60.6 460.226 59.16C460.786 57.64 461.666 56.4 462.866 55.44C464.146 54.48 465.746 54 467.666 54C469.266 54 470.546 54.52 471.506 55.56C472.466 56.6 472.946 57.92 472.946 59.52C472.946 60.56 472.786 61.72 472.466 63C472.226 64.2 471.826 65.44 471.266 66.72C472.066 66.72 473.506 66.28 475.586 65.4C477.666 64.52 480.066 63.64 482.786 62.76C485.586 61.88 488.386 61.44 491.186 61.44C493.666 61.44 495.626 62.04 497.066 63.24C498.586 64.44 499.506 66.28 499.826 68.76C500.146 71.16 499.786 74.32 498.746 78.24C498.186 80.48 497.346 83.08 496.226 86.04C495.106 89 493.946 92.04 492.746 95.16C491.546 98.28 490.386 101.2 489.266 103.92C488.226 106.64 487.426 108.84 486.866 110.52C486.066 112.76 485.866 114.2 486.266 114.84C486.666 115.4 487.226 115.68 487.946 115.68C488.746 115.68 489.546 115.44 490.346 114.96C491.226 114.4 492.106 113.64 492.986 112.68C493.946 111.64 494.946 110.44 495.986 109.08C496.626 108.28 497.226 107.84 497.786 107.76C498.426 107.6 499.226 107.84 500.186 108.48C501.466 109.28 502.226 110.08 502.466 110.88C502.786 111.68 502.746 112.48 502.346 113.28C501.626 114.48 500.466 116 498.866 117.84C497.266 119.68 495.306 121.32 492.986 122.76C490.746 124.12 488.146 124.8 485.186 124.8Z" fill="black"/>
</svg>
